<?xml version="1.0" standalone="no"?>
<!DOCTYPE svg PUBLIC "-//W3C//DTD SVG 20010904//EN"
 "http://www.w3.org/TR/2001/REC-SVG-20010904/DTD/svg10.dtd">
<svg version="1.0" xmlns="http://www.w3.org/2000/svg"
 width="876.000000pt" height="876.000000pt" viewBox="0 0 876.000000 876.000000"
 preserveAspectRatio="xMidYMid meet">
<metadata>
Created by potrace 1.14, written by Peter Selinger 2001-2017
</metadata>
<g transform="translate(0.000000,876.000000) scale(0.100000,-0.100000)"
fill="#000000" stroke="none">
<path d="M4130 8714 c-426 -38 -494 -51 -260 -53 559 -4 1012 -106 1480 -334
285 -139 518 -301 700 -486 137 -139 208 -229 258 -331 32 -65 37 -85 37 -145
0 -60 -5 -81 -37 -147 -20 -43 -39 -78 -42 -78 -2 0 -55 9 -118 19 -185 32
-360 43 -592 39 l-220 -3 -280 587 c-155 322 -295 606 -312 631 -36 51 -104
101 -178 131 -40 16 -74 20 -162 21 -110 0 -111 0 -196 -42 -58 -29 -103 -60
-141 -100 -61 -60 -63 -64 -320 -602 l-103 -215 -123 -17 c-285 -42 -536 -130
-710 -252 -302 -212 -478 -583 -458 -967 14 -265 90 -440 272 -621 l86 -86
-71 -142 c-39 -78 -90 -186 -114 -240 -97 -218 -290 -611 -300 -611 -14 0
-149 96 -246 174 -352 285 -566 624 -653 1031 -37 170 -50 320 -50 545 0 225
12 353 53 535 39 177 88 313 171 480 79 159 161 278 279 406 45 49 78 89 75
89 -12 0 -198 -142 -315 -239 -970 -809 -1540 -2019 -1540 -3271 0 -920 312
-1840 874 -2575 51 -66 103 -139 116 -162 48 -86 204 -175 390 -224 139 -36
232 -14 325 76 66 64 110 139 209 351 49 104 93 193 97 199 13 14 78 -53 186
-195 120 -156 309 -344 433 -432 179 -126 369 -212 626 -283 115 -32 126 -37
203 -99 322 -261 738 -465 1150 -565 224 -55 554 -101 728 -101 117 0 125 -7
51 -42 -167 -79 -311 -131 -507 -184 -90 -24 -166 -46 -169 -49 -3 -3 14 -3
39 0 196 22 249 29 359 47 268 43 569 122 813 214 57 21 134 40 202 50 386 54
768 171 1110 339 242 118 355 193 476 314 77 77 104 112 135 175 l39 80 3 250
3 249 44 56 c132 173 325 499 433 736 380 828 484 1721 306 2613 -261 1304
-1141 2431 -2359 3018 -473 228 -949 363 -1479 420 -134 14 -610 26 -706 18z
m-531 -3518 c105 -37 368 -123 556 -181 581 -179 859 -284 1230 -465 226 -110
314 -166 342 -215 13 -22 23 -46 23 -52 0 -10 -263 -13 -1280 -13 l-1280 0 0
28 c0 80 59 339 117 517 52 158 169 415 190 415 3 0 49 -15 102 -34z m1556
-1721 c56 -12 161 -15 520 -15 248 0 455 -4 460 -8 10 -7 77 -145 445 -931
l152 -324 -22 -136 c-35 -210 -92 -397 -180 -583 -35 -74 -22 -66 -165 -102
-394 -98 -892 -122 -1265 -60 -52 9 -101 19 -107 23 -8 4 12 21 55 45 221 126
408 324 502 531 17 39 45 122 61 185 25 95 31 142 36 270 8 237 -20 404 -97
568 -83 178 -268 375 -500 534 l-25 17 30 0 c17 1 62 -6 100 -14z"/>
</g>
</svg>
